<svg width="21" height="21" viewBox="0 0 21 21" fill="none" xmlns="http://www.w3.org/2000/svg">
<path d="M20 10.5C20 15.7468 15.7468 20 10.5 20C5.25322 20 1 15.7468 1 10.5C1 5.25322 5.25322 1 10.5 1C15.7468 1 20 5.25322 20 10.5Z" fill="#C60917"/>
<g filter="url(#filter0_i_2_4)">
<path d="M4.08188 12.5491C3.98708 12.4773 4.00068 12.3582 4.00068 12.3582L4.52588 6.11025C4.52588 6.11025 4.53408 6.04145 4.56468 6.00625C4.58398 5.98425 4.60838 5.95225 4.65438 5.93345C5.18258 5.71745 8.05368 4.16215 9.49998 5.61025C9.73968 5.88795 9.99988 6.29785 9.99988 6.61025V11.8982C9.99988 11.8982 10.0061 12.0104 9.90458 12.0783C9.88068 12.0943 9.78058 12.1399 9.66258 12.0809C7.43728 10.9675 4.95158 12.2355 4.32448 12.568C4.19868 12.6347 4.10058 12.5634 4.08188 12.5491ZM16.6754 12.568C16.0483 12.2355 13.5626 10.9675 11.3373 12.0809C11.2193 12.1399 11.1192 12.0943 11.0953 12.0783C10.9939 12.0104 11.0001 11.8982 11.0001 11.8982V6.61025C11.0001 6.29785 11.2603 5.88795 11.5 5.61025C12.9463 4.16215 15.7991 5.71735 16.3273 5.93345C16.3733 5.95225 16.3977 5.98425 16.417 6.00625C16.4476 6.04145 16.4558 6.11025 16.4558 6.11025L16.9993 12.3582C16.9993 12.3582 17.0129 12.4773 16.9181 12.5491C16.8994 12.5634 16.8013 12.6347 16.6754 12.568ZM11.8647 15.2966C11.8999 15.2881 11.9611 15.2523 11.9826 15.2191C12.0062 15.1827 12.0204 15.1574 12.0249 15.1103C12.0744 14.1724 13.6494 13.2984 16.6726 15.0805C16.7501 15.1246 16.8392 15.1201 16.9151 15.065C17.0014 15.0023 17 14.8962 17 14.8962V14.342C17 14.342 17.0003 14.2656 16.9728 14.2236C16.9523 14.1924 16.9252 14.1593 16.8802 14.1378C14.8548 12.8233 12.2944 12.2406 10.9948 13.9786C10.9767 14.0209 10.9595 14.0399 10.922 14.0691C10.8654 14.1131 10.7964 14.1103 10.7964 14.1103H10.2109C10.2109 14.1103 10.1419 14.1131 10.0853 14.0691C10.0478 14.0399 10.0306 14.0209 10.0125 13.9786C8.71288 12.2406 6.15248 12.7958 4.12708 14.1103C4.08208 14.1318 4.05498 14.1649 4.03448 14.1961C4.00698 14.2381 4.00728 14.3145 4.00728 14.3145V14.8687C4.00728 14.8687 4.00588 14.9748 4.09218 15.0375C4.16808 15.0926 4.25718 15.0971 4.33468 15.053C7.35788 13.2709 8.93288 14.1724 8.98238 15.1103C8.98688 15.1574 9.00108 15.1827 9.02468 15.2191C9.04618 15.2523 9.10738 15.2881 9.14258 15.2966C9.86448 15.4759 10.9112 15.5466 11.8647 15.2966Z" fill="white"/>
</g>
<defs>
<filter id="filter0_i_2_4" x="4" y="5" width="13" height="10.4586" filterUnits="userSpaceOnUse" color-interpolation-filters="sRGB">
<feFlood flood-opacity="0" result="BackgroundImageFix"/>
<feBlend mode="normal" in="SourceGraphic" in2="BackgroundImageFix" result="shape"/>
<feColorMatrix in="SourceAlpha" type="matrix" values="0 0 0 0 0 0 0 0 0 0 0 0 0 0 0 0 0 0 127 0" result="hardAlpha"/>
<feOffset/>
<feGaussianBlur stdDeviation="2"/>
<feComposite in2="hardAlpha" operator="arithmetic" k2="-1" k3="1"/>
<feColorMatrix type="matrix" values="0 0 0 0 0 0 0 0 0 0 0 0 0 0 0 0 0 0 0.25 0"/>
<feBlend mode="normal" in2="shape" result="effect1_innerShadow_2_4"/>
</filter>
</defs>
</svg>
