<svg width="128" height="128" viewBox="0 0 128 128" fill="none" xmlns="http://www.w3.org/2000/svg">
<path d="M128 64C128 99.3467 99.3467 128 64 128C28.6533 128 0 99.3467 0 64C0 28.6533 28.6533 0 64 0C99.3467 0 128 28.6533 128 64Z" fill="#005D53"/>
<path d="M64 20.2105L26.9474 40.1619V43.0121H101.053V40.1619L64 20.2105ZM32.6478 48.7125V77.2146L26.9474 86.3352V94.3158H101.053V86.3352L95.3522 77.2146V48.7125H32.6478ZM44.0486 54.413H49.749V85.7652H44.0486V54.413ZM61.1498 54.413H66.8502V85.7652H61.1498V54.413ZM78.251 54.413H83.9514V85.7652H78.251V54.413Z" fill="white"/>
</svg>
