<svg width="128" height="128" viewBox="0 0 128 128" fill="none" xmlns="http://www.w3.org/2000/svg">
<path d="M128 64C128 99.3467 99.3467 128 64 128C28.6533 128 0 99.3467 0 64C0 28.6533 28.6533 0 64 0C99.3467 0 128 28.6533 128 64Z" fill="#C60917"/>
<path d="M31 24V104.667H67.6667V82.6667H89.6667V104.667H97V24H31ZM60.3333 97.3333H38.3333V82.6667H60.3333V97.3333ZM60.3333 75.3333H38.3333V60.6667H60.3333V75.3333ZM60.3333 53.3333H38.3333V38.6667H60.3333V53.3333ZM89.6667 75.3333H67.6667V60.6667H89.6667V75.3333ZM89.6667 53.3333H67.6667V38.6667H89.6667V53.3333Z" fill="#FDFDFD"/>
</svg>
